<svg preserveAspectRatio="none" width="100%" height="100%" overflow="visible" style="display: block;" viewBox="0 0 53.2595 53.3236" fill="none" xmlns="http://www.w3.org/2000/svg">
<path id="Vector" d="M43.052 26.9236L16.652 53.3236H5.33736V42.009L31.7374 15.609L43.052 26.9236ZM41.1667 6.17963C41.6668 5.67971 42.3449 5.39887 43.052 5.39887C43.7591 5.39887 44.4373 5.67971 44.9374 6.17963L52.4787 13.7263C52.9786 14.2264 53.2595 14.9045 53.2595 15.6116C53.2595 16.3187 52.9786 16.9969 52.4787 17.497L46.8227 23.1503L35.508 11.8383L41.1667 6.17963ZM9.41469 0.851632C9.51482 0.600311 9.68803 0.384805 9.91194 0.232982C10.1359 0.0811586 10.4002 0 10.6707 0C10.9412 0 11.2055 0.0811586 11.4294 0.232982C11.6534 0.384805 11.8266 0.600311 11.9267 0.851632L12.6014 2.48363C13.7339 5.24283 15.8813 7.46276 18.6014 8.6863L20.516 9.53963C20.7608 9.65291 20.9681 9.83388 21.1134 10.0612C21.2586 10.2884 21.3358 10.5526 21.3358 10.8223C21.3358 11.092 21.2586 11.3561 21.1134 11.5834C20.9681 11.8107 20.7608 11.9917 20.516 12.105L18.4894 13.0063C15.837 14.1965 13.7268 16.3372 12.5747 19.0063L11.916 20.5156C11.8135 20.7614 11.6406 20.9714 11.4189 21.119C11.1973 21.2667 10.937 21.3455 10.6707 21.3455C10.4044 21.3455 10.144 21.2667 9.92244 21.119C9.70083 20.9714 9.52788 20.7614 9.42536 20.5156L8.76669 19.009C7.6145 16.3384 5.50319 14.1966 2.84936 13.0063L0.822694 12.105C0.577144 11.992 0.369131 11.811 0.223316 11.5834C0.0775014 11.3559 0 11.0912 0 10.821C0 10.5507 0.0775014 10.2861 0.223316 10.0585C0.369131 9.83091 0.577144 9.64992 0.822694 9.53697L2.73736 8.68363C5.45794 7.46128 7.60628 5.24231 8.74003 2.48363L9.41469 0.851632Z" fill="var(--fill-0, #9B78FF)"/>
</svg>
