<svg width="64" height="64" viewBox="0 0 64 64" fill="none" xmlns="http://www.w3.org/2000/svg">
<path d="M45.7141 29.592L19.3141 55.992H7.99947V44.6773L34.3995 18.2773L45.7141 29.592ZM43.8288 8.84797C44.3289 8.34804 45.007 8.0672 45.7141 8.0672C46.4212 8.0672 47.0994 8.34804 47.5995 8.84797L55.1408 16.3946C55.6407 16.8947 55.9216 17.5729 55.9216 18.28C55.9216 18.9871 55.6407 19.6652 55.1408 20.1653L49.4848 25.8186L38.1701 14.5066L43.8288 8.84797ZM12.0768 3.51997C12.1769 3.26865 12.3501 3.05314 12.5741 2.90132C12.798 2.74949 13.0623 2.66833 13.3328 2.66833C13.6033 2.66833 13.8676 2.74949 14.0916 2.90132C14.3155 3.05314 14.4887 3.26865 14.5888 3.51997L15.2635 5.15197C16.396 7.91117 18.5434 10.1311 21.2635 11.3546L23.1781 12.208C23.4229 12.3212 23.6302 12.5022 23.7755 12.7295C23.9207 12.9568 23.9979 13.2209 23.9979 13.4906C23.9979 13.7604 23.9207 14.0245 23.7755 14.2518C23.6302 14.4791 23.4229 14.66 23.1781 14.7733L21.1515 15.6746C18.4991 16.8648 16.3889 19.0055 15.2368 21.6746L14.5781 23.184C14.4756 23.4297 14.3027 23.6397 14.0811 23.7874C13.8595 23.935 13.5991 24.0138 13.3328 24.0138C13.0665 24.0138 12.8062 23.935 12.5845 23.7874C12.3629 23.6397 12.19 23.4297 12.0875 23.184L11.4288 21.6773C10.2766 19.0067 8.1653 16.8649 5.51147 15.6746L3.4848 14.7733C3.23925 14.6603 3.03124 14.4794 2.88543 14.2518C2.73961 14.0242 2.66211 13.7596 2.66211 13.4893C2.66211 13.219 2.73961 12.9544 2.88543 12.7268C3.03124 12.4992 3.23925 12.3183 3.4848 12.2053L5.39947 11.352C8.12005 10.1296 10.2684 7.91065 11.4021 5.15197L12.0768 3.51997Z" fill="#9B78FF"/>
</svg>
