<svg preserveAspectRatio="none" width="100%" height="100%" overflow="visible" style="display: block;" viewBox="0 0 160 160" fill="none" xmlns="http://www.w3.org/2000/svg">
<g id="&#240;&#159;&#152;&#148; &#236;&#136;&#152;&#236;&#139;&#172; &#236;&#150;&#180;&#235;&#166;&#176; &#236;&#150;&#188;&#234;&#181;&#180;" clip-path="url(#clip0_0_7)">
<g id="Group">
<path id="Vector" d="M80 150C118.66 150 150 118.66 150 80C150 41.3401 118.66 10 80 10C41.3401 10 10 41.3401 10 80C10 118.66 41.3401 150 80 150Z" fill="var(--fill-0, #FFC84D)"/>
<path id="Vector_2" d="M49.1504 82.7157C48.1624 82.2277 47.0264 83.0837 47.2464 84.1637C48.4664 90.1597 53.6264 94.6637 59.8064 94.6637C65.9864 94.6637 71.1464 90.1597 72.3664 84.1637C72.5864 83.0837 71.4504 82.2277 70.4624 82.7157C68.3064 83.7797 64.6344 85.1197 59.8064 85.1197C54.9784 85.1197 51.3064 83.7797 49.1504 82.7157Z" fill="var(--fill-0, black)"/>
<path id="Vector_3" d="M111.603 82.7157C112.591 82.2277 113.727 83.0837 113.507 84.1637C112.287 90.1597 107.127 94.6637 100.947 94.6637C94.767 94.6637 89.607 90.1597 88.387 84.1637C88.167 83.0837 89.303 82.2277 90.291 82.7157C92.447 83.7797 96.119 85.1197 100.947 85.1197C105.775 85.1197 109.447 83.7797 111.603 82.7157Z" fill="var(--fill-0, black)"/>
<path id="Vector_4" d="M104.194 57.9358C99.6345 55.8078 97.4904 53.5358 95.7064 51.5078C94.6784 50.3398 93.2224 50.8758 93.2344 52.5398C93.2624 56.1358 95.4825 61.0198 101.458 63.8078C107.434 66.5918 112.602 65.1558 115.374 62.8638C116.658 61.8038 116.134 60.3398 114.574 60.3038C111.874 60.2438 108.754 60.0598 104.194 57.9358Z" fill="var(--fill-0, black)"/>
<path id="Vector_5" d="M55.8094 57.9358C60.3694 55.8078 62.5134 53.5358 64.2974 51.5078C65.3254 50.3398 66.7814 50.8758 66.7694 52.5398C66.7414 56.1358 64.5214 61.0198 58.5454 63.8078C52.5694 66.5918 47.4014 65.1558 44.6294 62.8638C43.3454 61.8038 43.8694 60.3398 45.4294 60.3038C48.1294 60.2438 51.2494 60.0598 55.8094 57.9358Z" fill="var(--fill-0, black)"/>
<path id="Vector_6" d="M90.7831 120H69.2031C66.9911 120 65.2031 118.208 65.2031 116C65.2031 113.792 66.9911 112 69.2031 112H90.7831C92.9951 112 94.7831 113.792 94.7831 116C94.7831 118.208 92.9951 120 90.7831 120Z" fill="var(--fill-0, #FF6D00)"/>
</g>
<g id="Vector_7">
</g>
</g>
<defs>
<clipPath id="clip0_0_7">
<rect width="160" height="160" fill="white"/>
</clipPath>
</defs>
</svg>
