<svg width="300" height="300" viewBox="0 0 300 300" fill="none" xmlns="http://www.w3.org/2000/svg">
<g clip-path="url(#clip0_654_8690)">
<path d="M152.401 125.745L283.118 50.0926C225.083 9.96756 146.528 55.4326 152.401 125.745Z" fill="#FFCD00"/>
<path d="M234.801 117.351C271.621 96.138 295.096 67.8765 287.232 54.2271C279.368 40.5777 243.145 46.7093 206.324 67.9223C169.503 89.1353 146.029 117.397 153.893 131.046C161.756 144.696 197.98 138.564 234.801 117.351Z" fill="#FFAD00"/>
<path d="M147.6 125.745L16.8828 50.1C74.9178 9.97501 153.473 55.4325 147.6 125.745Z" fill="#FFCD00"/>
<path d="M146.106 131.04C153.97 117.391 130.495 89.1294 93.6748 67.9164C56.8542 46.7033 20.6304 40.5718 12.7667 54.2212C4.90307 67.8705 28.3774 96.1321 65.198 117.345C102.019 138.558 138.243 144.69 146.106 131.04Z" fill="#FFAD00"/>
<path d="M270.533 204.128C277.823 204.128 283.733 198.218 283.733 190.928C283.733 183.637 277.823 177.728 270.533 177.728C263.243 177.728 257.333 183.637 257.333 190.928C257.333 198.218 263.243 204.128 270.533 204.128Z" fill="#EDCCF8"/>
<path d="M231.248 198.938C229.763 198.938 228.263 198.593 226.853 197.858C209.955 189.075 196.155 175.688 186.945 159.15C184.38 154.545 186.038 148.733 190.643 146.168C195.24 143.61 201.053 145.253 203.625 149.865C211.005 163.133 222.083 173.865 235.658 180.923C240.338 183.353 242.153 189.113 239.723 193.793C238.02 197.063 234.698 198.938 231.248 198.938Z" fill="#B44BD7"/>
<path d="M83.5501 225.48C80.6851 225.48 77.8426 224.198 75.9676 221.738C72.7651 217.552 73.5601 211.56 77.7376 208.357C93.2776 196.455 104.858 180.45 111.21 162.082C112.935 157.095 118.388 154.462 123.353 156.18C128.333 157.905 130.973 163.343 129.255 168.323C121.665 190.245 107.865 209.325 89.3476 223.515C87.6151 224.842 85.5751 225.48 83.5501 225.48Z" fill="#EF4452"/>
<path d="M40.1331 181.095C35.7531 181.095 31.8081 178.065 30.8181 173.61C29.6856 168.465 32.9331 163.365 38.0781 162.233C44.3106 160.853 50.4231 158.873 56.2656 156.345C74.4906 148.448 89.7906 135.398 100.508 118.59C103.343 114.143 109.238 112.845 113.686 115.68C118.126 118.515 119.431 124.418 116.596 128.858C103.816 148.883 85.5756 164.445 63.8481 173.858C56.8956 176.873 49.6131 179.228 42.1956 180.87C41.4981 181.02 40.8156 181.095 40.1331 181.095Z" fill="#7896FF"/>
<path d="M176.64 254.295C173.775 254.295 170.948 253.013 169.065 250.568C149.768 225.458 141.413 194.34 145.553 162.96C146.243 157.74 151.028 154.095 156.263 154.748C161.49 155.438 165.165 160.23 164.475 165.458C161.003 191.775 168.008 217.875 184.193 238.935C187.403 243.113 186.623 249.105 182.445 252.315C180.713 253.65 178.665 254.295 176.64 254.295Z" fill="#FFAD00"/>
<path d="M168.375 116.79L177.75 126.158C179.7 128.108 179.7 131.265 177.75 133.215L168.367 142.575C166.417 144.525 163.252 144.525 161.302 142.575L151.927 133.208C149.977 131.258 149.977 128.1 151.927 126.15L161.31 116.79C163.26 114.84 166.425 114.84 168.375 116.79Z" fill="#EF4452"/>
<path d="M222.644 239.65L226.628 227.578C227.583 224.683 226.01 221.562 223.115 220.606L211.015 216.614C208.12 215.658 204.998 217.231 204.043 220.126L200.06 232.198C199.104 235.093 200.677 238.215 203.572 239.17L215.673 243.163C218.568 244.118 221.689 242.545 222.644 239.65Z" fill="#7896FF"/>
<path d="M23.5726 210.967L29.8051 222.997C31.1026 225.502 34.1851 226.477 36.6976 225.18L48.7426 218.955C51.2476 217.657 52.2301 214.582 50.9326 212.077L44.7001 200.047C43.4026 197.542 40.3201 196.567 37.8076 197.865L25.7626 204.09C23.2576 205.387 22.2751 208.462 23.5726 210.967Z" fill="#A8BFFF"/>
<path d="M109.486 265.028C115.359 265.028 120.121 260.266 120.121 254.393C120.121 248.519 115.359 243.758 109.486 243.758C103.612 243.758 98.8506 248.519 98.8506 254.393C98.8506 260.266 103.612 265.028 109.486 265.028Z" fill="#FFC84D"/>
<path d="M205.778 117.938C211.651 117.938 216.413 113.176 216.413 107.303C216.413 101.429 211.651 96.6675 205.778 96.6675C199.904 96.6675 195.143 101.429 195.143 107.303C195.143 113.176 199.904 117.938 205.778 117.938Z" fill="white"/>
<path d="M81.4948 107.003C88.3459 107.003 93.8998 101.449 93.8998 94.5975C93.8998 87.7464 88.3459 82.1925 81.4948 82.1925C74.6438 82.1925 69.0898 87.7464 69.0898 94.5975C69.0898 101.449 74.6438 107.003 81.4948 107.003Z" fill="#FFC84D"/>
</g>
<defs>
<clipPath id="clip0_654_8690">
<rect width="300" height="300" fill="white"/>
</clipPath>
</defs>
</svg>
