<svg width="40" height="39" viewBox="0 0 40 39" fill="none" xmlns="http://www.w3.org/2000/svg">
<path fill-rule="evenodd" clip-rule="evenodd" d="M11.5348 0.0266871C10.7673 0.0658585 10.4335 0.186022 10.0845 0.548991C9.9595 0.678962 9.00991 1.77441 7.97424 2.98337C4.17357 7.41994 0.240262 12.0047 0.125094 12.1326C-0.0483067 12.325 -0.0398512 12.7344 0.140596 12.8805C0.271323 12.9863 0.443483 12.9885 7.49716 12.9741L14.7198 12.9594L15.9882 12.3275C19.1151 10.7697 21.7607 9.91446 25.3742 9.29329C26.1349 9.16253 26.5474 9.06582 26.6425 8.99604C26.7201 8.93912 27.2745 8.34923 27.8746 7.68518C28.4747 7.02112 30.1363 5.18914 31.5669 3.61417C32.9977 2.03914 34.1898 0.687304 34.2161 0.610032C34.2744 0.439425 34.1705 0.15739 34.0197 0.0766796C33.9053 0.0154144 12.6808 -0.0318164 11.5348 0.0266871Z" fill="#7C4DFF"/>
<path fill-rule="evenodd" clip-rule="evenodd" d="M22.5443 11.8467C18.8687 12.9985 15.9215 14.5566 13.3174 16.7248C9.47346 19.9251 6.75739 24.2995 5.57516 29.1942C5.0567 31.3408 4.85218 33.1108 4.82997 35.6439L4.81689 37.1291L4.94914 37.2362C5.20716 37.445 5.15507 37.478 6.65401 36.1554C9.28811 33.8312 12.7529 31.1603 15.3124 29.4808C15.964 29.0532 16.0249 28.9482 16.1129 28.0999C16.4918 24.4481 17.8287 20.4014 19.7814 16.9957C20.8242 15.177 22.2082 13.2528 23.296 12.1094C23.6276 11.7609 23.6843 11.5831 23.4621 11.5882C23.4069 11.5895 22.9939 11.7058 22.5443 11.8467Z" fill="#7C4DFF"/>
<path fill-rule="evenodd" clip-rule="evenodd" d="M25.2583 12.766C25.1601 12.8088 24.9143 13.0566 24.6876 13.3415C22.0829 16.6141 20.2202 20.3407 19.2905 24.1395C18.7467 26.3612 18.5374 27.9128 18.4711 30.215C18.4225 31.8977 18.4435 38.5572 18.4978 38.7284C18.5648 38.9395 18.7321 38.9511 21.7052 38.9511C24.5465 38.9511 24.6007 38.949 24.7466 38.8343L24.8952 38.7175V30.473C24.8952 24.5844 24.913 22.1773 24.9576 22.0493C25.0811 21.6952 24.9743 21.7044 28.954 21.7044C31.9539 21.7044 32.5932 21.6909 32.7196 21.6249C32.8033 21.5812 33.0746 21.3086 33.3225 21.019C34.0243 20.1993 35.8425 18.1086 37.95 15.6982C39.0088 14.4871 39.9039 13.4426 39.939 13.377C40.0418 13.1849 40.0133 12.9736 39.8645 12.8249L39.7262 12.6865L32.5784 12.6887C26.7526 12.6905 25.3988 12.7048 25.2583 12.766Z" fill="#7C4DFF"/>
</svg>
