<svg width="32" height="32" viewBox="0 0 32 32" fill="none" xmlns="http://www.w3.org/2000/svg">
<path fill-rule="evenodd" clip-rule="evenodd" d="M10.921 4.33059C10.4604 4.35409 10.2602 4.42619 10.0508 4.64397C9.97576 4.72196 9.40601 5.37923 8.7846 6.10462C6.50417 8.76659 4.14416 11.5175 4.07506 11.5942C3.97102 11.7097 3.97609 11.9553 4.08436 12.043C4.1628 12.1064 4.26609 12.1078 8.49835 12.0991L12.832 12.0903L13.593 11.7111C15.4692 10.7765 17.0566 10.2633 19.2247 9.89061C19.6811 9.81216 19.9286 9.75413 19.9857 9.71226C20.0322 9.6781 20.3649 9.32417 20.7249 8.92573C21.085 8.5273 22.082 7.4281 22.9404 6.4831C23.7988 5.53807 24.5141 4.72696 24.5299 4.6806C24.5649 4.57823 24.5025 4.40901 24.4121 4.36058C24.3434 4.32382 11.6086 4.29549 10.921 4.33059Z" fill="#7C4DFF"/>
<path fill-rule="evenodd" clip-rule="evenodd" d="M17.5264 11.4225C15.3211 12.1136 13.5527 13.0485 11.9902 14.3494C9.68385 16.2696 8.05419 18.8943 7.34484 21.8312C7.03376 23.1191 6.91105 24.1811 6.89772 25.701L6.88988 26.5921L6.96923 26.6564C7.12404 26.7817 7.09279 26.8015 7.99216 26.0079C9.57264 24.6134 11.6515 23.0108 13.1873 22.0031C13.5782 21.7466 13.6147 21.6836 13.6676 21.1746C13.8949 18.9834 14.6971 16.5554 15.8687 14.512C16.4944 13.4207 17.3247 12.2662 17.9775 11.5802C18.1764 11.3711 18.2104 11.2644 18.0771 11.2675C18.044 11.2682 17.7962 11.338 17.5264 11.4225Z" fill="#7C4DFF"/>
<path fill-rule="evenodd" clip-rule="evenodd" d="M19.1548 11.9743C19.0959 11.9999 18.9485 12.1486 18.8124 12.3196C17.2496 14.2832 16.132 16.5192 15.5741 18.7984C15.2478 20.1315 15.1223 21.0624 15.0825 22.4438C15.0533 23.4534 15.0659 27.4492 15.0985 27.5519C15.1387 27.6785 15.2391 27.6855 17.023 27.6855C18.7278 27.6855 18.7603 27.6842 18.8479 27.6154L18.937 27.5453V22.5986C18.937 19.0654 18.9477 17.6211 18.9745 17.5443C19.0485 17.3318 18.9844 17.3374 21.3723 17.3374C23.1722 17.3374 23.5559 17.3293 23.6317 17.2897C23.6819 17.2634 23.8447 17.0999 23.9934 16.9261C24.4145 16.4343 25.5055 15.1798 26.77 13.7336C27.4053 13.0069 27.9423 12.3802 27.9634 12.3408C28.0251 12.2256 28.0079 12.0988 27.9187 12.0096L27.8357 11.9266L23.547 11.9279C20.0515 11.929 19.2392 11.9376 19.1548 11.9743Z" fill="#7C4DFF"/>
</svg>
