<svg width="694" height="46" viewBox="0 0 694 46" fill="none" xmlns="http://www.w3.org/2000/svg">
<rect width="694" height="46" rx="23" fill="#F6F2FF"/>
<path d="M20.833 28.8334V27.1667H26.7497C27.6247 27.1667 28.3851 26.8889 29.0309 26.3334C29.6768 25.7778 29.9997 25.0834 29.9997 24.25C29.9997 23.4167 29.6768 22.7223 29.0309 22.1667C28.3851 21.6112 27.6247 21.3334 26.7497 21.3334H21.4997L23.6663 23.5L22.4997 24.6667L18.333 20.5L22.4997 16.3334L23.6663 17.5L21.4997 19.6667H26.7497C28.0969 19.6667 29.2531 20.1042 30.2184 20.9792C31.1837 21.8542 31.6663 22.9445 31.6663 24.25C31.6663 25.5556 31.1837 26.6459 30.2184 27.5209C29.2531 28.3959 28.0969 28.8334 26.7497 28.8334H20.833Z" fill="#D2D6E1"/>
<path d="M51.2497 28.8334C49.9025 28.8334 48.7462 28.3959 47.7809 27.5209C46.8156 26.6459 46.333 25.5556 46.333 24.25C46.333 22.9445 46.8156 21.8542 47.7809 20.9792C48.7462 20.1042 49.9025 19.6667 51.2497 19.6667H56.4997L54.333 17.5L55.4997 16.3334L59.6663 20.5L55.4997 24.6667L54.333 23.5L56.4997 21.3334H51.2497C50.3747 21.3334 49.6143 21.6112 48.9684 22.1667C48.3226 22.7223 47.9997 23.4167 47.9997 24.25C47.9997 25.0834 48.3226 25.7778 48.9684 26.3334C49.6143 26.8889 50.3747 27.1667 51.2497 27.1667H57.1663V28.8334H51.2497Z" fill="#D2D6E1"/>
<rect x="70" y="11" width="1" height="24" fill="#D2D6E1"/>
<path d="M83.3027 20.8223C83.2207 19.9746 82.4961 19.4824 81.4297 19.4824C80.3086 19.4824 79.625 20.0293 79.625 20.7676C79.625 21.6016 80.5 21.9434 81.3203 22.1348L82.25 22.3809C83.7266 22.7227 85.1484 23.502 85.1484 25.2246C85.1484 26.9609 83.7812 28.1504 81.4023 28.1504C79.0918 28.1504 77.6426 27.043 77.5605 25.0879H79.3105C79.3926 26.127 80.2676 26.6328 81.3887 26.6328C82.5645 26.6328 83.3711 26.0586 83.3711 25.2109C83.3711 24.4316 82.6465 24.1035 81.5801 23.8301L80.459 23.543C78.832 23.1191 77.8203 22.2988 77.8203 20.877C77.8203 19.127 79.3789 17.9648 81.457 17.9648C83.5625 17.9648 84.9844 19.1543 85.0117 20.8223H83.3027ZM85.9212 25.9082C85.9212 24.2402 87.302 23.748 88.6829 23.666C89.1956 23.6318 90.262 23.5703 90.5833 23.5566V22.9688C90.5833 22.2305 90.1048 21.8066 89.2434 21.8066C88.4641 21.8066 87.9856 22.1621 87.8489 22.6953H86.1673C86.2903 21.4375 87.4251 20.4805 89.2845 20.4805C90.6927 20.4805 92.3196 21.0547 92.3196 23.0371V28H90.6516V26.9746H90.597C90.2688 27.6035 89.5716 28.1504 88.4095 28.1504C86.9876 28.1504 85.9212 27.3711 85.9212 25.9082ZM87.6028 25.8945C87.6028 26.5371 88.1223 26.8652 88.8606 26.8652C89.9134 26.8652 90.597 26.168 90.597 25.334V24.7188L88.9563 24.8281C88.1223 24.8965 87.6028 25.2383 87.6028 25.8945ZM95.4302 23.6523V28H93.6802V20.5762H95.3482V21.834H95.4439C95.7857 21 96.5377 20.4805 97.6451 20.4805C99.19 20.4805 100.202 21.4922 100.188 23.2695V28H98.4517V23.543C98.4517 22.5449 97.9185 21.957 97.0025 21.957C96.0728 21.957 95.4302 22.5723 95.4302 23.6523ZM105.787 22.6953C105.678 22.1348 105.213 21.7793 104.474 21.7793C103.722 21.7793 103.176 22.1484 103.189 22.6543C103.176 23.0371 103.49 23.3242 104.242 23.502L105.5 23.7617C106.908 24.0762 107.578 24.7188 107.592 25.7852C107.578 27.1797 106.361 28.1504 104.42 28.1504C102.533 28.1504 101.412 27.3027 101.234 25.8809H103.012C103.121 26.5098 103.613 26.8242 104.42 26.8242C105.254 26.8242 105.814 26.4824 105.814 25.9355C105.814 25.5117 105.472 25.2383 104.734 25.0742L103.545 24.8145C102.164 24.541 101.453 23.8164 101.453 22.75C101.453 21.3828 102.629 20.4805 104.447 20.4805C106.224 20.4805 107.318 21.3418 107.441 22.6953H105.787ZM117.149 20.8223C117.067 19.9746 116.342 19.4824 115.276 19.4824C114.155 19.4824 113.471 20.0293 113.471 20.7676C113.471 21.6016 114.346 21.9434 115.166 22.1348L116.096 22.3809C117.573 22.7227 118.995 23.502 118.995 25.2246C118.995 26.9609 117.627 28.1504 115.248 28.1504C112.938 28.1504 111.489 27.043 111.407 25.0879H113.157C113.239 26.127 114.114 26.6328 115.235 26.6328C116.411 26.6328 117.217 26.0586 117.217 25.2109C117.217 24.4316 116.493 24.1035 115.426 23.8301L114.305 23.543C112.678 23.1191 111.666 22.2988 111.666 20.877C111.666 19.127 113.225 17.9648 115.303 17.9648C117.409 17.9648 118.83 19.1543 118.858 20.8223H117.149ZM123.404 28.1504C121.162 28.1504 119.795 26.6602 119.795 24.3359C119.795 22.0391 121.189 20.4805 123.308 20.4805C125.127 20.4805 126.699 21.6152 126.699 24.2266V24.7734H121.517C121.538 26.0381 122.283 26.7832 123.418 26.7832C124.183 26.7832 124.703 26.4551 124.922 26.0176H126.631C126.316 27.3027 125.127 28.1504 123.404 28.1504ZM121.531 23.584H125.031C125.017 22.5723 124.347 21.834 123.336 21.834C122.283 21.834 121.586 22.6338 121.531 23.584ZM127.772 28V20.5762H129.468V21.8066H129.55C129.81 20.959 130.534 20.4668 131.382 20.4668C131.573 20.4668 131.847 20.4805 132.011 20.5078V22.1211C131.86 22.0664 131.491 22.0117 131.204 22.0117C130.233 22.0117 129.522 22.6816 129.522 23.625V28H127.772ZM132.77 28V20.5762H134.52V28H132.77ZM133.658 19.5234C133.112 19.5234 132.647 19.0996 132.647 18.5664C132.647 18.0469 133.112 17.623 133.658 17.623C134.219 17.623 134.67 18.0469 134.67 18.5664C134.67 19.0996 134.219 19.5234 133.658 19.5234ZM139.667 20.5762V21.916H138.136V28H136.386V21.916H135.279V20.5762H136.386V19.8652C136.386 18.416 137.289 17.6367 138.71 17.6367C139.121 17.6367 139.49 17.6777 139.818 17.7461V19.127C139.531 19.0859 139.312 19.0723 139.189 19.0723C138.478 19.0723 138.136 19.3594 138.136 20.0293V20.5762H139.667Z" fill="#D2D6E1"/>
<path d="M157 26.5L152.833 22.3334H161.166L157 26.5Z" fill="#D2D6E1"/>
<rect x="171" y="11" width="1" height="24" fill="#D2D6E1"/>
<path d="M190.667 29.6667V18.8334H186.5V16.3334H197.334V18.8334H193.167V29.6667H190.667ZM183.167 29.6667V23H180.667V20.5H188.167V23H185.667V29.6667H183.167Z" fill="#D2D6E1"/>
<path d="M216 26.5L211.833 22.3334H220.166L216 26.5Z" fill="#D2D6E1"/>
<path d="M236.667 28.8333V17.1666H241.271C242.174 17.1666 243.007 17.4444 243.771 18C244.535 18.5555 244.917 19.3263 244.917 20.3125C244.917 21.0208 244.757 21.5659 244.438 21.9479C244.118 22.3298 243.82 22.6041 243.542 22.7708C243.889 22.9236 244.275 23.2083 244.698 23.625C245.122 24.0416 245.334 24.6666 245.334 25.5C245.334 26.7361 244.882 27.6007 243.979 28.0937C243.077 28.5868 242.229 28.8333 241.438 28.8333H236.667ZM239.188 26.5H241.354C242.021 26.5 242.427 26.3298 242.573 25.9895C242.719 25.6493 242.792 25.4027 242.792 25.25C242.792 25.0972 242.719 24.8507 242.573 24.5104C242.427 24.1701 242 24 241.292 24H239.188V26.5ZM239.188 21.75H241.125C241.584 21.75 241.917 21.6319 242.125 21.3958C242.334 21.1597 242.438 20.8958 242.438 20.6041C242.438 20.2708 242.32 20 242.084 19.7916C241.848 19.5833 241.542 19.4791 241.167 19.4791H239.188V21.75Z" fill="#D2D6E1"/>
<path d="M263.167 28.8333V26.75H266.5L269 19.25H265.667V17.1666H274V19.25H271.084L268.584 26.75H271.5V28.8333H263.167Z" fill="#D2D6E1"/>
<path d="M291.167 30.5V28.8333H302.834V30.5H291.167ZM297 27.1667C295.598 27.1667 294.507 26.7292 293.729 25.8542C292.952 24.9792 292.563 23.8194 292.563 22.375V15.5H294.709V22.5C294.709 23.2778 294.903 23.9097 295.292 24.3958C295.681 24.8819 296.25 25.125 297 25.125C297.75 25.125 298.32 24.8819 298.709 24.3958C299.098 23.9097 299.292 23.2778 299.292 22.5V15.5H301.438V22.375C301.438 23.8194 301.049 24.9792 300.271 25.8542C299.493 26.7292 298.403 27.1667 297 27.1667Z" fill="#D2D6E1"/>
<path d="M316.667 33V29.6667H333.334V33H316.667ZM319.584 27.1667L323.959 15.5H326.042L330.417 27.1667H328.417L327.375 24.1667H322.667L321.584 27.1667H319.584ZM323.25 22.5H326.75L325.042 17.6667H324.959L323.25 22.5Z" fill="#D2D6E1"/>
<path d="M352 26.5L347.833 22.3334H356.166L352 26.5Z" fill="#D2D6E1"/>
<rect x="366" y="11" width="1" height="24" fill="#D2D6E1"/>
<path d="M376.5 30.5V28.8333H391.5V30.5H376.5ZM376.5 27.1667V25.5H386.5V27.1667H376.5ZM376.5 23.8333V22.1667H391.5V23.8333H376.5ZM376.5 20.5V18.8333H386.5V20.5H376.5ZM376.5 17.1667V15.5H391.5V17.1667H376.5Z" fill="#D2D6E1"/>
<path d="M411 26.5L406.833 22.3334H415.166L411 26.5Z" fill="#D2D6E1"/>
<path d="M428.5 31.3333V30.0833H430.583V29.4583H429.333V28.2083H430.583V27.5833H428.5V26.3333H431C431.236 26.3333 431.434 26.4132 431.594 26.5729C431.753 26.7326 431.833 26.9305 431.833 27.1666V28C431.833 28.2361 431.753 28.434 431.594 28.5937C431.434 28.7534 431.236 28.8333 431 28.8333C431.236 28.8333 431.434 28.9132 431.594 29.0729C431.753 29.2326 431.833 29.4305 431.833 29.6666V30.5C431.833 30.7361 431.753 30.934 431.594 31.0937C431.434 31.2534 431.236 31.3333 431 31.3333H428.5ZM428.5 25.5V23.2083C428.5 22.9722 428.58 22.7743 428.74 22.6145C428.899 22.4548 429.097 22.375 429.333 22.375H430.583V21.75H428.5V20.5H431C431.236 20.5 431.434 20.5798 431.594 20.7395C431.753 20.8993 431.833 21.0972 431.833 21.3333V22.7916C431.833 23.0277 431.753 23.2257 431.594 23.3854C431.434 23.5451 431.236 23.625 431 23.625H429.75V24.25H431.833V25.5H428.5ZM429.75 19.6666V15.9166H428.5V14.6666H431V19.6666H429.75ZM433.5 28.8333V27.1666H443.5V28.8333H433.5ZM433.5 23.8333V22.1666H443.5V23.8333H433.5ZM433.5 18.8333V17.1666H443.5V18.8333H433.5Z" fill="#D2D6E1"/>
<path d="M461.5 28.8334V27.1667H471.5V28.8334H461.5ZM461.5 23.8334V22.1667H471.5V23.8334H461.5ZM461.5 18.8334V17.1667H471.5V18.8334H461.5ZM458.167 29.6667C457.708 29.6667 457.316 29.5035 456.99 29.1771C456.663 28.8507 456.5 28.4584 456.5 28C456.5 27.5417 456.663 27.1493 456.99 26.823C457.316 26.4966 457.708 26.3334 458.167 26.3334C458.625 26.3334 459.017 26.4966 459.344 26.823C459.67 27.1493 459.833 27.5417 459.833 28C459.833 28.4584 459.67 28.8507 459.344 29.1771C459.017 29.5035 458.625 29.6667 458.167 29.6667ZM458.167 24.6667C457.708 24.6667 457.316 24.5035 456.99 24.1771C456.663 23.8507 456.5 23.4584 456.5 23C456.5 22.5417 456.663 22.1493 456.99 21.823C457.316 21.4966 457.708 21.3334 458.167 21.3334C458.625 21.3334 459.017 21.4966 459.344 21.823C459.67 22.1493 459.833 22.5417 459.833 23C459.833 23.4584 459.67 23.8507 459.344 24.1771C459.017 24.5035 458.625 24.6667 458.167 24.6667ZM458.167 19.6667C457.708 19.6667 457.316 19.5035 456.99 19.1771C456.663 18.8507 456.5 18.4584 456.5 18C456.5 17.5417 456.663 17.1493 456.99 16.823C457.316 16.4966 457.708 16.3334 458.167 16.3334C458.625 16.3334 459.017 16.4966 459.344 16.823C459.67 17.1493 459.833 17.5417 459.833 18C459.833 18.4584 459.67 18.8507 459.344 19.1771C459.017 19.5035 458.625 19.6667 458.167 19.6667Z" fill="#D2D6E1"/>
<path d="M484.5 30.5V28.8333H499.5V30.5H484.5ZM491.167 27.1667V25.5H499.5V27.1667H491.167ZM491.167 23.8333V22.1667H499.5V23.8333H491.167ZM491.167 20.5V18.8333H499.5V20.5H491.167ZM484.5 17.1667V15.5H499.5V17.1667H484.5ZM487.833 26.3333L484.5 23L487.833 19.6667V26.3333Z" fill="#D2D6E1"/>
<path d="M512.5 30.5V28.8333H527.5V30.5H512.5ZM519.167 27.1667V25.5H527.5V27.1667H519.167ZM519.167 23.8333V22.1667H527.5V23.8333H519.167ZM519.167 20.5V18.8333H527.5V20.5H519.167ZM512.5 17.1667V15.5H527.5V17.1667H512.5ZM512.5 26.3333V19.6667L515.833 23L512.5 26.3333Z" fill="#D2D6E1"/>
<path d="M542.75 28L544.666 24.6667C543.75 24.6667 542.965 24.3403 542.312 23.6875C541.659 23.0347 541.333 22.25 541.333 21.3333C541.333 20.4167 541.659 19.6319 542.312 18.9792C542.965 18.3264 543.75 18 544.666 18C545.583 18 546.368 18.3264 547.021 18.9792C547.673 19.6319 548 20.4167 548 21.3333C548 21.6528 547.961 21.9479 547.885 22.2188C547.809 22.4896 547.694 22.75 547.541 23L544.666 28H542.75ZM550.25 28L552.166 24.6667C551.25 24.6667 550.465 24.3403 549.812 23.6875C549.159 23.0347 548.833 22.25 548.833 21.3333C548.833 20.4167 549.159 19.6319 549.812 18.9792C550.465 18.3264 551.25 18 552.166 18C553.083 18 553.868 18.3264 554.521 18.9792C555.173 19.6319 555.5 20.4167 555.5 21.3333C555.5 21.6528 555.461 21.9479 555.385 22.2188C555.309 22.4896 555.194 22.75 555.041 23L552.166 28H550.25ZM544.666 22.5833C545.014 22.5833 545.309 22.4618 545.552 22.2188C545.795 21.9757 545.916 21.6806 545.916 21.3333C545.916 20.9861 545.795 20.691 545.552 20.4479C545.309 20.2049 545.014 20.0833 544.666 20.0833C544.319 20.0833 544.024 20.2049 543.781 20.4479C543.538 20.691 543.416 20.9861 543.416 21.3333C543.416 21.6806 543.538 21.9757 543.781 22.2188C544.024 22.4618 544.319 22.5833 544.666 22.5833ZM552.166 22.5833C552.514 22.5833 552.809 22.4618 553.052 22.2188C553.295 21.9757 553.416 21.6806 553.416 21.3333C553.416 20.9861 553.295 20.691 553.052 20.4479C552.809 20.2049 552.514 20.0833 552.166 20.0833C551.819 20.0833 551.524 20.2049 551.281 20.4479C551.038 20.691 550.916 20.9861 550.916 21.3333C550.916 21.6806 551.038 21.9757 551.281 22.2188C551.524 22.4618 551.819 22.5833 552.166 22.5833Z" fill="#D2D6E1"/>
<rect x="565" y="11" width="1" height="24" fill="#D2D6E1"/>
<path d="M583.125 29.6667C582.07 29.6667 581.132 29.3542 580.313 28.7292C579.493 28.1042 578.903 27.25 578.542 26.1667L580.375 25.375C580.57 26.0417 580.907 26.5903 581.386 27.0209C581.865 27.4514 582.459 27.6667 583.167 27.6667C583.75 27.6667 584.278 27.5278 584.75 27.25C585.223 26.9723 585.459 26.5278 585.459 25.9167C585.459 25.6667 585.41 25.4375 585.313 25.2292C585.216 25.0209 585.084 24.8334 584.917 24.6667H587.25C587.32 24.8612 587.372 25.0591 587.407 25.2605C587.441 25.4618 587.459 25.6806 587.459 25.9167C587.459 27.1112 587.032 28.0348 586.177 28.6875C585.323 29.3403 584.306 29.6667 583.125 29.6667ZM574.667 23V21.3334H591.334V23H574.667ZM583.042 16.2084C583.959 16.2084 584.761 16.4341 585.448 16.8855C586.136 17.3368 586.667 18.0278 587.042 18.9584L585.209 19.7709C585.084 19.3681 584.851 19.007 584.511 18.6875C584.17 18.3681 583.695 18.2084 583.084 18.2084C582.514 18.2084 582.042 18.3368 581.667 18.5938C581.292 18.8507 581.084 19.2084 581.042 19.6667H579.042C579.07 18.7084 579.448 17.8924 580.177 17.2188C580.907 16.5452 581.861 16.2084 583.042 16.2084Z" fill="#D2D6E1"/>
<rect x="600" y="11" width="1" height="24" fill="#D2D6E1"/>
<path d="M619 21.625L617.063 19.6875L614.542 17.1667H624.667V19.6667H619.834L619 21.625ZM624.5 31.8334L617.584 24.9167L615.917 28.8334H613.188L615.667 23L609.167 16.5L610.334 15.3334L625.667 30.6667L624.5 31.8334Z" fill="#D2D6E1"/>
</svg>
