<svg width="28" height="28" viewBox="0 0 28 28" fill="none" xmlns="http://www.w3.org/2000/svg">
<path d="M20.667 9.83334L19.8753 8.12501L18.167 7.33334L19.8753 6.54168L20.667 4.83334L21.4587 6.54168L23.167 7.33334L21.4587 8.12501L20.667 9.83334ZM11.0837 9.83334L10.292 8.12501L8.58366 7.33334L10.292 6.54168L11.0837 4.83334L11.8753 6.54168L13.5837 7.33334L11.8753 8.12501L11.0837 9.83334ZM20.667 19.4167L19.8753 17.7083L18.167 16.9167L19.8753 16.125L20.667 14.4167L21.4587 16.125L23.167 16.9167L21.4587 17.7083L20.667 19.4167ZM8.25033 22.0833L5.91699 19.75C5.75033 19.5833 5.66699 19.382 5.66699 19.1458C5.66699 18.9097 5.75033 18.7083 5.91699 18.5417L15.2087 9.25001C15.3753 9.08334 15.5767 9.00001 15.8128 9.00001C16.0489 9.00001 16.2503 9.08334 16.417 9.25001L18.7503 11.5833C18.917 11.75 19.0003 11.9514 19.0003 12.1875C19.0003 12.4236 18.917 12.625 18.7503 12.7917L9.45866 22.0833C9.29199 22.25 9.0906 22.3333 8.85449 22.3333C8.61838 22.3333 8.41699 22.25 8.25033 22.0833ZM8.87533 20.3333L14.8337 14.3333L13.667 13.1667L7.66699 19.125L8.87533 20.3333Z" fill="#D2D6E1"/>
</svg>
