<svg width="28" height="28" viewBox="0 0 28 28" fill="none" xmlns="http://www.w3.org/2000/svg">
<path d="M8.58301 21.9167C8.3469 21.9167 8.10731 21.8438 7.86426 21.6979C7.6212 21.5521 7.44412 21.382 7.33301 21.1875L5.24967 17.5417C5.13856 17.3472 5.08301 17.1076 5.08301 16.8229C5.08301 16.5382 5.13856 16.2986 5.24967 16.1042L10.6663 6.81251C10.7775 6.61807 10.9545 6.44793 11.1976 6.30209C11.4406 6.15626 11.6802 6.08334 11.9163 6.08334H16.083C16.3191 6.08334 16.5587 6.15626 16.8018 6.30209C17.0448 6.44793 17.2219 6.61807 17.333 6.81251L21.1247 13.3125C20.8052 13.2292 20.4754 13.1736 20.1351 13.1458C19.7948 13.1181 19.458 13.132 19.1247 13.1875L15.958 7.75001H12.0413L6.74967 16.8333L8.70801 20.25H15.2913C15.4441 20.5695 15.6212 20.8681 15.8226 21.1458C16.024 21.4236 16.2566 21.6806 16.5205 21.9167H8.58301ZM10.0413 18.1667L9.43717 17.1042L13.2497 10.4583H14.7497L16.8538 14.125C16.6177 14.3056 16.399 14.5035 16.1976 14.7188C15.9962 14.934 15.8191 15.1597 15.6663 15.3958L13.9997 12.5L11.708 16.5H15.1247C15.0275 16.7639 14.9545 17.0347 14.9059 17.3125C14.8573 17.5903 14.833 17.875 14.833 18.1667H10.0413ZM18.9997 21.5V19H16.4997V17.3333H18.9997V14.8333H20.6663V17.3333H23.1663V19H20.6663V21.5H18.9997Z" fill="#D2D6E1"/>
</svg>
