<svg width="28" height="28" viewBox="0 0 28 28" fill="none" xmlns="http://www.w3.org/2000/svg">
<path d="M8.16667 19.8333H9.35417L17.5 11.6875L16.3125 10.5L8.16667 18.6458V19.8333ZM6.5 21.5V17.9583L17.5 6.97917C17.6667 6.82639 17.8507 6.70833 18.0521 6.625C18.2535 6.54167 18.4653 6.5 18.6875 6.5C18.9097 6.5 19.125 6.54167 19.3333 6.625C19.5417 6.70833 19.7222 6.83333 19.875 7L21.0208 8.16667C21.1875 8.31944 21.309 8.5 21.3854 8.70833C21.4618 8.91667 21.5 9.125 21.5 9.33333C21.5 9.55556 21.4618 9.76736 21.3854 9.96875C21.309 10.1701 21.1875 10.3542 21.0208 10.5208L10.0417 21.5H6.5ZM16.8958 11.1042L16.3125 10.5L17.5 11.6875L16.8958 11.1042Z" fill="#D2D6E1"/>
</svg>
