<svg width="28" height="28" viewBox="0 0 28 28" fill="none" xmlns="http://www.w3.org/2000/svg">
<path d="M16.917 13.1667C17.2642 13.1667 17.5594 13.0451 17.8024 12.8021C18.0455 12.559 18.167 12.2639 18.167 11.9167C18.167 11.5694 18.0455 11.2743 17.8024 11.0312C17.5594 10.7882 17.2642 10.6667 16.917 10.6667C16.5698 10.6667 16.2746 10.7882 16.0316 11.0312C15.7885 11.2743 15.667 11.5694 15.667 11.9167C15.667 12.2639 15.7885 12.559 16.0316 12.8021C16.2746 13.0451 16.5698 13.1667 16.917 13.1667ZM11.0837 13.1667C11.4309 13.1667 11.726 13.0451 11.9691 12.8021C12.2121 12.559 12.3337 12.2639 12.3337 11.9167C12.3337 11.5694 12.2121 11.2743 11.9691 11.0312C11.726 10.7882 11.4309 10.6667 11.0837 10.6667C10.7364 10.6667 10.4413 10.7882 10.1982 11.0312C9.95519 11.2743 9.83366 11.5694 9.83366 11.9167C9.83366 12.2639 9.95519 12.559 10.1982 12.8021C10.4413 13.0451 10.7364 13.1667 11.0837 13.1667ZM14.0003 18.5833C14.9448 18.5833 15.8024 18.316 16.5732 17.7812C17.3441 17.2465 17.9031 16.5417 18.2503 15.6667H9.75033C10.0975 16.5417 10.6566 17.2465 11.4274 17.7812C12.1982 18.316 13.0559 18.5833 14.0003 18.5833ZM14.0003 22.3333C12.8475 22.3333 11.7642 22.1146 10.7503 21.6771C9.73644 21.2396 8.85449 20.6458 8.10449 19.8958C7.35449 19.1458 6.76074 18.2639 6.32324 17.25C5.88574 16.2361 5.66699 15.1528 5.66699 14C5.66699 12.8472 5.88574 11.7639 6.32324 10.75C6.76074 9.7361 7.35449 8.85416 8.10449 8.10416C8.85449 7.35416 9.73644 6.76041 10.7503 6.32291C11.7642 5.88541 12.8475 5.66666 14.0003 5.66666C15.1531 5.66666 16.2364 5.88541 17.2503 6.32291C18.2642 6.76041 19.1462 7.35416 19.8962 8.10416C20.6462 8.85416 21.2399 9.7361 21.6774 10.75C22.1149 11.7639 22.3337 12.8472 22.3337 14C22.3337 15.1528 22.1149 16.2361 21.6774 17.25C21.2399 18.2639 20.6462 19.1458 19.8962 19.8958C19.1462 20.6458 18.2642 21.2396 17.2503 21.6771C16.2364 22.1146 15.1531 22.3333 14.0003 22.3333ZM14.0003 20.6667C15.8614 20.6667 17.4378 20.0208 18.7295 18.7292C20.0212 17.4375 20.667 15.8611 20.667 14C20.667 12.1389 20.0212 10.5625 18.7295 9.27082C17.4378 7.97916 15.8614 7.33332 14.0003 7.33332C12.1392 7.33332 10.5628 7.97916 9.27116 9.27082C7.97949 10.5625 7.33366 12.1389 7.33366 14C7.33366 15.8611 7.97949 17.4375 9.27116 18.7292C10.5628 20.0208 12.1392 20.6667 14.0003 20.6667Z" fill="#D2D6E1"/>
</svg>
