<svg width="28" height="28" viewBox="0 0 28 28" fill="none" xmlns="http://www.w3.org/2000/svg">
<path d="M18.9997 17.125C18.9997 18.5694 18.4927 19.7986 17.4788 20.8125C16.465 21.8264 15.2358 22.3333 13.7913 22.3333C12.3469 22.3333 11.1177 21.8264 10.1038 20.8125C9.08995 19.7986 8.58301 18.5694 8.58301 17.125V9.41666C8.58301 8.37499 8.94759 7.48957 9.67676 6.76041C10.4059 6.03124 11.2913 5.66666 12.333 5.66666C13.3747 5.66666 14.2601 6.03124 14.9893 6.76041C15.7184 7.48957 16.083 8.37499 16.083 9.41666V16.7083C16.083 17.3472 15.8608 17.8889 15.4163 18.3333C14.9719 18.7778 14.4302 19 13.7913 19C13.1525 19 12.6108 18.7778 12.1663 18.3333C11.7219 17.8889 11.4997 17.3472 11.4997 16.7083V8.99999H13.1663V16.7083C13.1663 16.8889 13.2254 17.0382 13.3434 17.1562C13.4615 17.2743 13.6108 17.3333 13.7913 17.3333C13.9719 17.3333 14.1212 17.2743 14.2393 17.1562C14.3573 17.0382 14.4163 16.8889 14.4163 16.7083V9.41666C14.4025 8.83332 14.1976 8.34027 13.8018 7.93749C13.4059 7.53471 12.9163 7.33332 12.333 7.33332C11.7497 7.33332 11.2566 7.53471 10.8538 7.93749C10.4511 8.34027 10.2497 8.83332 10.2497 9.41666V17.125C10.2358 18.1111 10.5761 18.9479 11.2705 19.6354C11.965 20.3229 12.8052 20.6667 13.7913 20.6667C14.7636 20.6667 15.59 20.3229 16.2705 19.6354C16.9511 18.9479 17.3052 18.1111 17.333 17.125V8.99999H18.9997V17.125Z" fill="#D2D6E1"/>
</svg>
