<svg width="28" height="28" viewBox="0 0 28 28" fill="none" xmlns="http://www.w3.org/2000/svg">
<path d="M5.29075 20.5H2.84185L7.32942 7.77072H10.1512L14.6388 20.5H12.1961L11.1395 17.3488H6.34738L5.29075 20.5ZM6.96271 15.509H10.518L8.79006 10.3688H8.69061L6.96271 15.509ZM15.2544 17.8211C15.2544 15.6644 17.0383 15.0366 18.8097 14.9185C19.4748 14.875 20.8359 14.8128 21.2524 14.7942L21.2462 14.0235C21.2462 13.0849 20.6433 12.538 19.5183 12.538C18.5176 12.538 17.9085 12.9917 17.7406 13.6754H15.5714C15.733 12.0594 17.1875 10.8287 19.5804 10.8287C21.3891 10.8287 23.4775 11.5746 23.4775 14.1167V20.5H21.3332V19.1885H21.2586C20.8484 19.9841 19.9533 20.6927 18.4554 20.6927C16.6343 20.6927 15.2544 19.6982 15.2544 17.8211ZM17.4174 17.7901C17.4174 18.6167 18.0887 19.0456 19.0272 19.0456C20.3884 19.0456 21.2586 18.1443 21.2586 17.0753L21.2524 16.2859C20.8484 16.3046 19.6053 16.3854 19.1578 16.4289C18.0887 16.5097 17.4174 16.9572 17.4174 17.7901Z" fill="#D2D6E1"/>
</svg>
