<svg width="28" height="28" viewBox="0 0 28 28" fill="none" xmlns="http://www.w3.org/2000/svg">
<path d="M8.16667 21.5C7.70833 21.5 7.31597 21.3368 6.98958 21.0104C6.66319 20.684 6.5 20.2917 6.5 19.8333V8.16667C6.5 7.70833 6.66319 7.31597 6.98958 6.98958C7.31597 6.66319 7.70833 6.5 8.16667 6.5H19.8333C20.2917 6.5 20.684 6.66319 21.0104 6.98958C21.3368 7.31597 21.5 7.70833 21.5 8.16667V19.8333C21.5 20.2917 21.3368 20.684 21.0104 21.0104C20.684 21.3368 20.2917 21.5 19.8333 21.5H8.16667ZM8.16667 19.8333H19.8333V8.16667H8.16667V19.8333ZM9 18.1667H19L15.875 14L13.375 17.3333L11.5 14.8333L9 18.1667Z" fill="#D2D6E1"/>
</svg>
