<svg width="28" height="28" viewBox="0 0 28 28" fill="none" xmlns="http://www.w3.org/2000/svg">
<path d="M13.167 18.1667H9.83366C8.68088 18.1667 7.69824 17.7604 6.88574 16.9479C6.07324 16.1354 5.66699 15.1528 5.66699 14C5.66699 12.8472 6.07324 11.8646 6.88574 11.0521C7.69824 10.2396 8.68088 9.83334 9.83366 9.83334H13.167V11.5H9.83366C9.13921 11.5 8.54894 11.7431 8.06283 12.2292C7.57671 12.7153 7.33366 13.3056 7.33366 14C7.33366 14.6945 7.57671 15.2847 8.06283 15.7708C8.54894 16.257 9.13921 16.5 9.83366 16.5H13.167V18.1667ZM10.667 14.8333V13.1667H17.3337V14.8333H10.667ZM14.8337 18.1667V16.5H18.167C18.8614 16.5 19.4517 16.257 19.9378 15.7708C20.4239 15.2847 20.667 14.6945 20.667 14C20.667 13.3056 20.4239 12.7153 19.9378 12.2292C19.4517 11.7431 18.8614 11.5 18.167 11.5H14.8337V9.83334H18.167C19.3198 9.83334 20.3024 10.2396 21.1149 11.0521C21.9274 11.8646 22.3337 12.8472 22.3337 14C22.3337 15.1528 21.9274 16.1354 21.1149 16.9479C20.3024 17.7604 19.3198 18.1667 18.167 18.1667H14.8337Z" fill="#D2D6E1"/>
</svg>
