<svg width="28" height="28" viewBox="0 0 28 28" fill="none" xmlns="http://www.w3.org/2000/svg">
<path d="M11.4997 10.6667H16.4997V9.00001C16.4997 8.30557 16.2566 7.71529 15.7705 7.22918C15.2844 6.74307 14.6941 6.50001 13.9997 6.50001C13.3052 6.50001 12.715 6.74307 12.2288 7.22918C11.7427 7.71529 11.4997 8.30557 11.4997 9.00001V10.6667ZM14.208 22.3333H8.99967C8.54134 22.3333 8.14898 22.1701 7.82259 21.8438C7.4962 21.5174 7.33301 21.125 7.33301 20.6667V12.3333C7.33301 11.875 7.4962 11.4826 7.82259 11.1563C8.14898 10.8299 8.54134 10.6667 8.99967 10.6667H9.83301V9.00001C9.83301 7.84723 10.2393 6.86459 11.0518 6.05209C11.8643 5.23959 12.8469 4.83334 13.9997 4.83334C15.1525 4.83334 16.1351 5.23959 16.9476 6.05209C17.7601 6.86459 18.1663 7.84723 18.1663 9.00001V10.6667H18.9997C19.458 10.6667 19.8504 10.8299 20.1768 11.1563C20.5031 11.4826 20.6663 11.875 20.6663 12.3333V13.4167C20.4163 13.3333 20.1559 13.2708 19.8851 13.2292C19.6143 13.1875 19.3191 13.1667 18.9997 13.1667V12.3333H8.99967V20.6667H13.4163C13.5275 21 13.6386 21.2882 13.7497 21.5313C13.8608 21.7743 14.0136 22.0417 14.208 22.3333ZM18.9997 23.1667C17.8469 23.1667 16.8643 22.7604 16.0518 21.9479C15.2393 21.1354 14.833 20.1528 14.833 19C14.833 17.8472 15.2393 16.8646 16.0518 16.0521C16.8643 15.2396 17.8469 14.8333 18.9997 14.8333C20.1525 14.8333 21.1351 15.2396 21.9476 16.0521C22.7601 16.8646 23.1663 17.8472 23.1663 19C23.1663 20.1528 22.7601 21.1354 21.9476 21.9479C21.1351 22.7604 20.1525 23.1667 18.9997 23.1667ZM20.3747 20.9583L20.958 20.375L19.4163 18.8333V16.5H18.583V19.1667L20.3747 20.9583Z" fill="#D2D6E1"/>
</svg>
