<svg width="28" height="28" viewBox="0 0 28 28" fill="none" xmlns="http://www.w3.org/2000/svg">
<path d="M13.9997 20.6667C13.5413 20.6667 13.149 20.5035 12.8226 20.1771C12.4962 19.8507 12.333 19.4583 12.333 19C12.333 18.5417 12.4962 18.1493 12.8226 17.8229C13.149 17.4965 13.5413 17.3333 13.9997 17.3333C14.458 17.3333 14.8504 17.4965 15.1768 17.8229C15.5031 18.1493 15.6663 18.5417 15.6663 19C15.6663 19.4583 15.5031 19.8507 15.1768 20.1771C14.8504 20.5035 14.458 20.6667 13.9997 20.6667ZM13.9997 15.6667C13.5413 15.6667 13.149 15.5035 12.8226 15.1771C12.4962 14.8507 12.333 14.4583 12.333 14C12.333 13.5417 12.4962 13.1493 12.8226 12.8229C13.149 12.4965 13.5413 12.3333 13.9997 12.3333C14.458 12.3333 14.8504 12.4965 15.1768 12.8229C15.5031 13.1493 15.6663 13.5417 15.6663 14C15.6663 14.4583 15.5031 14.8507 15.1768 15.1771C14.8504 15.5035 14.458 15.6667 13.9997 15.6667ZM13.9997 10.6667C13.5413 10.6667 13.149 10.5035 12.8226 10.1771C12.4962 9.8507 12.333 9.45834 12.333 9.00001C12.333 8.54168 12.4962 8.14932 12.8226 7.82293C13.149 7.49654 13.5413 7.33334 13.9997 7.33334C14.458 7.33334 14.8504 7.49654 15.1768 7.82293C15.5031 8.14932 15.6663 8.54168 15.6663 9.00001C15.6663 9.45834 15.5031 9.8507 15.1768 10.1771C14.8504 10.5035 14.458 10.6667 13.9997 10.6667Z" fill="#D2D6E1"/>
</svg>
