<svg width="28" height="28" viewBox="0 0 28 28" fill="none" xmlns="http://www.w3.org/2000/svg">
<path d="M16.7503 17.9166L17.917 16.75L14.8337 13.6666V9.83329H13.167V14.3333L16.7503 17.9166ZM14.0003 22.3333C12.8475 22.3333 11.7642 22.1145 10.7503 21.677C9.73644 21.2395 8.85449 20.6458 8.10449 19.8958C7.35449 19.1458 6.76074 18.2638 6.32324 17.25C5.88574 16.2361 5.66699 15.1527 5.66699 14C5.66699 12.8472 5.88574 11.7638 6.32324 10.75C6.76074 9.73607 7.35449 8.85413 8.10449 8.10413C8.85449 7.35413 9.73644 6.76038 10.7503 6.32288C11.7642 5.88538 12.8475 5.66663 14.0003 5.66663C15.1531 5.66663 16.2364 5.88538 17.2503 6.32288C18.2642 6.76038 19.1462 7.35413 19.8962 8.10413C20.6462 8.85413 21.2399 9.73607 21.6774 10.75C22.1149 11.7638 22.3337 12.8472 22.3337 14C22.3337 15.1527 22.1149 16.2361 21.6774 17.25C21.2399 18.2638 20.6462 19.1458 19.8962 19.8958C19.1462 20.6458 18.2642 21.2395 17.2503 21.677C16.2364 22.1145 15.1531 22.3333 14.0003 22.3333ZM14.0003 20.6666C15.8475 20.6666 17.4205 20.0173 18.7191 18.7187C20.0177 17.4201 20.667 15.8472 20.667 14C20.667 12.1527 20.0177 10.5798 18.7191 9.28121C17.4205 7.9826 15.8475 7.33329 14.0003 7.33329C12.1531 7.33329 10.5802 7.9826 9.28158 9.28121C7.98296 10.5798 7.33366 12.1527 7.33366 14C7.33366 15.8472 7.98296 17.4201 9.28158 18.7187C10.5802 20.0173 12.1531 20.6666 14.0003 20.6666Z" fill="#D2D6E1"/>
</svg>
